<?xml version="1.0" encoding="utf-8"?>
<!-- Generator: Adobe Illustrator 21.0.0, SVG Export Plug-In . SVG Version: 6.00 Build 0)  -->
<svg version="1.1" id="Layer_1" xmlns="http://www.w3.org/2000/svg" xmlns:xlink="http://www.w3.org/1999/xlink" x="0px" y="0px"
	 viewBox="0 0 61 61" style="enable-background:new 0 0 61 61;" xml:space="preserve">
<style type="text/css">
	.st0{fill:#455A64;stroke:#424242;stroke-linecap:round;stroke-linejoin:round;stroke-miterlimit:10;}
	.st1{fill:none;stroke:#546E7A;stroke-linecap:round;stroke-linejoin:round;stroke-miterlimit:10;}
	.st2{fill:#546E7A;stroke:#424242;stroke-linecap:round;stroke-linejoin:round;stroke-miterlimit:10;}
	.st3{fill:none;stroke:#78909C;stroke-linecap:round;stroke-linejoin:round;stroke-miterlimit:10;}
	.st4{fill:none;stroke:#455A64;stroke-linecap:round;stroke-linejoin:round;stroke-miterlimit:10;}
	.st5{fill:#FFA726;stroke:#424242;stroke-linecap:round;stroke-linejoin:round;stroke-miterlimit:10;}
	.st6{fill:none;stroke:#FB8C00;stroke-linecap:round;stroke-linejoin:round;stroke-miterlimit:10;}
	.st7{fill:none;stroke:#FFCC80;stroke-linecap:round;stroke-linejoin:round;stroke-miterlimit:10;}
	.st8{fill:#CFD8DC;stroke:#424242;stroke-linecap:round;stroke-linejoin:round;stroke-miterlimit:10;}
	.st9{fill:none;stroke:#ECEFF1;stroke-linecap:round;stroke-linejoin:round;stroke-miterlimit:10;}
	.st10{fill:none;stroke:#B0BEC5;stroke-linecap:round;stroke-linejoin:round;stroke-miterlimit:10;}
	.st11{fill:none;stroke:#424242;stroke-linecap:round;stroke-linejoin:round;stroke-miterlimit:10;}
	.st12{fill:#EC407A;stroke:#424242;stroke-linecap:round;stroke-linejoin:round;stroke-miterlimit:10;}
	.st13{fill:none;stroke:#F48FB1;stroke-linecap:round;stroke-linejoin:round;stroke-miterlimit:10;}
	.st14{fill:none;stroke:#D81B60;stroke-linecap:round;stroke-linejoin:round;stroke-miterlimit:10;}
	.st15{fill:#ECEFF1;stroke:#424242;stroke-linecap:round;stroke-linejoin:round;stroke-miterlimit:10;}
	.st16{fill:#26C6DA;stroke:#424242;stroke-linecap:round;stroke-linejoin:round;stroke-miterlimit:10;}
	.st17{fill:none;stroke:#00ACC1;stroke-linecap:round;stroke-linejoin:round;stroke-miterlimit:10;}
	.st18{fill:none;stroke:#80DEEA;stroke-linecap:round;stroke-linejoin:round;stroke-miterlimit:10;}
	.st19{fill:#B0BEC5;stroke:#424242;stroke-linecap:round;stroke-linejoin:round;stroke-miterlimit:10;}
	.st20{fill:none;stroke:#CFD8DC;stroke-linecap:round;stroke-linejoin:round;stroke-miterlimit:10;}
	.st21{fill:#E0E0E0;stroke:#424242;stroke-linecap:round;stroke-linejoin:round;stroke-miterlimit:10;}
	.st22{fill:#F57F17;stroke:#424242;stroke-linecap:round;stroke-linejoin:round;stroke-miterlimit:10;}
	.st23{fill:none;stroke:#F57F17;stroke-linecap:round;stroke-linejoin:round;stroke-miterlimit:10;}
	.st24{fill:#FB8C00;stroke:#424242;stroke-miterlimit:10;}
	.st25{fill:none;stroke:#0097A7;stroke-linecap:round;stroke-linejoin:round;stroke-miterlimit:10;}
	.st26{fill:#26C6DA;stroke:#0097A7;stroke-linecap:round;stroke-linejoin:round;stroke-miterlimit:10;}
	.st27{fill:none;stroke:#90A4AE;stroke-linecap:round;stroke-linejoin:round;stroke-miterlimit:10;}
	.st28{fill:#CFD8DC;}
	.st29{fill:none;stroke:#424242;stroke-linecap:round;stroke-linejoin:round;}
	.st30{fill:none;stroke:#424242;stroke-linecap:round;stroke-linejoin:round;stroke-dasharray:4.0714,4.0714;}
	.st31{fill:#90A4AE;stroke:#424242;stroke-linecap:round;stroke-linejoin:round;stroke-miterlimit:10;}
	.st32{fill:none;stroke:#78909C;stroke-linecap:round;stroke-miterlimit:10;}
	.st33{fill:none;stroke:#455A64;stroke-linecap:round;stroke-miterlimit:10;}
	.st34{fill:#78909C;stroke:#424242;stroke-linecap:round;stroke-linejoin:round;stroke-miterlimit:10;}
	.st35{fill:none;stroke:#546E7A;stroke-linecap:round;stroke-miterlimit:10;}
	.st36{fill:none;stroke:#FFA726;stroke-linecap:round;stroke-linejoin:round;stroke-miterlimit:10;}
	.st37{fill:#4DD0E1;stroke:#424242;stroke-linecap:round;stroke-linejoin:round;stroke-miterlimit:10;}
	.st38{fill:#00ACC1;stroke:#424242;stroke-linecap:round;stroke-linejoin:round;stroke-miterlimit:10;}
	.st39{fill:#D81B60;stroke:#424242;stroke-linecap:round;stroke-linejoin:round;stroke-miterlimit:10;}
	.st40{fill:none;stroke:#C2185B;stroke-linecap:round;stroke-linejoin:round;stroke-miterlimit:10;}
	.st41{fill:#FB8C00;stroke:#424242;stroke-linecap:round;stroke-linejoin:round;stroke-miterlimit:10;}
	.st42{fill:none;stroke:#37474F;stroke-linecap:round;stroke-linejoin:round;stroke-miterlimit:10;}
	.st43{fill:#B0BEC5;stroke:#424242;stroke-miterlimit:10;}
	.st44{fill:#37474F;stroke:#424242;stroke-linecap:round;stroke-linejoin:round;stroke-miterlimit:10;}
	.st45{fill:#F5F5F5;stroke:#424242;stroke-linecap:round;stroke-linejoin:round;stroke-miterlimit:10;}
	.st46{fill:none;stroke:#FAFAFA;stroke-linecap:round;stroke-linejoin:round;stroke-miterlimit:10;}
	.st47{fill:#F06292;stroke:#424242;stroke-linecap:round;stroke-linejoin:round;stroke-miterlimit:10;}
	.st48{fill:#F48FB1;stroke:#424242;stroke-linecap:round;stroke-linejoin:round;stroke-miterlimit:10;}
</style>
<g id="Popcorn__x26__Soda">
	<path class="st5" d="M33.8,2.8c-1.6-1.2-3.8-1.1-5.3,0.3c-1.4,1.4-1.5,3.7-0.3,5.3c-0.4,1.3-0.1,2.8,1,3.9c1.6,1.6,4.1,1.6,5.7,0
		c0.5-0.5,0.8-1.1,1-1.8c0.7-0.2,1.3-0.5,1.8-1c1.6-1.6,1.6-4.1,0-5.7C36.6,2.8,35.1,2.4,33.8,2.8z"/>
	<path class="st7" d="M32,11.5c-0.5,0-1-0.2-1.4-0.6c-0.5-0.5-0.7-1.2-0.5-2c0.2-0.6,0-1.3-0.4-1.8c-0.6-0.8-0.6-1.9,0.1-2.6
		c0.4-0.4,0.9-0.6,1.4-0.6h0"/>
	<path class="st5" d="M48.6,8.4c1.2-1.6,1.1-3.8-0.3-5.3c-1.4-1.4-3.7-1.5-5.3-0.3c-1.3-0.4-2.8-0.1-3.9,1c-1.6,1.6-1.6,4.1,0,5.7
		c0.5,0.5,1.1,0.8,1.8,1c0.2,0.7,0.5,1.3,1,1.8c1.6,1.6,4.1,1.6,5.7,0C48.6,11.2,48.9,9.7,48.6,8.4z"/>
	<path class="st6" d="M45.4,3.9L45.4,3.9c0.5,0,1,0.2,1.4,0.6c0.7,0.7,0.8,1.8,0.1,2.6c-0.4,0.5-0.5,1.2-0.4,1.8
		c0.2,0.7,0,1.4-0.5,2c-0.4,0.4-0.9,0.6-1.4,0.6"/>
	<g>
		<path class="st5" d="M42.3,4c-0.2-2-1.9-3.5-4-3.5c-2,0-3.7,1.5-4,3.5c-1.2,0.7-2,2-2,3.5c0,2.2,1.8,4,4,4c0.7,0,1.4-0.2,2-0.6
			c0.6,0.3,1.3,0.6,2,0.6c2.2,0,4-1.8,4-4C44.4,6,43.5,4.7,42.3,4z"/>
		<path class="st7" d="M34.4,7.5c0-0.7,0.4-1.4,1-1.7c0.6-0.3,0.9-0.9,1-1.5c0.1-1,1-1.8,2-1.8"/>
	</g>
	<g>
		<path class="st5" d="M54.3,9c-0.2-2-1.9-3.5-4-3.5c-2,0-3.7,1.5-4,3.5c-1.2,0.7-2,2-2,3.5c0,2.2,1.8,4,4,4c0.7,0,1.4-0.2,2-0.6
			c0.6,0.3,1.3,0.6,2,0.6c2.2,0,4-1.8,4-4C56.4,11,55.5,9.7,54.3,9z"/>
		<path class="st7" d="M46.4,12.5c0-0.7,0.4-1.4,1-1.7c0.6-0.3,0.9-0.9,1-1.5c0.1-1,1-1.8,2-1.8"/>
	</g>
	<g>
		<path class="st8" d="M13.9,27.5c-0.8,0-1.5-0.7-1.5-1.5V14.7L5.9,9.1C5.3,8.6,5.2,7.7,5.7,7c0.5-0.6,1.5-0.7,2.1-0.2l7,6
			c0.3,0.3,0.5,0.7,0.5,1.1v12C15.4,26.8,14.7,27.5,13.9,27.5z"/>
	</g>
	<g>
		<path class="st5" d="M30.3,9c-0.2-2-1.9-3.5-4-3.5c-2,0-3.7,1.5-4,3.5c-1.2,0.7-2,2-2,3.5c0,2.2,1.8,4,4,4c0.7,0,1.4-0.2,2-0.6
			c0.6,0.3,1.3,0.6,2,0.6c2.2,0,4-1.8,4-4C32.4,11,31.5,9.7,30.3,9z"/>
		<path class="st7" d="M22.4,12.5c0-0.7,0.4-1.4,1-1.7c0.6-0.3,0.9-0.9,1-1.5c0.1-1,1-1.8,2-1.8"/>
	</g>
	<path class="st5" d="M34.4,15.9c0.2,2,1.9,3.5,4,3.5c2,0,3.7-1.5,4-3.5c1.2-0.7,2-2,2-3.5c0-2.2-1.8-4-4-4c-0.7,0-1.4,0.2-2,0.6
		c-0.6-0.3-1.3-0.6-2-0.6c-2.2,0-4,1.8-4,4C32.4,13.9,33.2,15.2,34.4,15.9z"/>
	<path class="st0" d="M43.4,12.5c-2.8,0-5,2.2-5,5c0-2.8-2.2-5-5-5s-5,2.2-5,5c0-2.8-2.2-5-5-5s-5,2.2-5,5l2.9,40.2
		c0.1,1.6,1.4,2.8,3,2.8h18.3c1.6,0,2.9-1.2,3-2.8l2.9-40.2C48.4,14.7,46.1,12.5,43.4,12.5z"/>
	<path class="st1" d="M23.2,57.6l-2.9-40.1c0-1.6,1.4-2.9,3-2.9"/>
	<path class="st8" d="M53.4,12.5c-2.8,0-5,2.2-5,5c0-2.8-2.2-5-5-5s-5,2.2-5,5c0-2.8-2.2-5-5-5s-5,2.2-5,5l2.9,40.2
		c0.1,1.6,1.4,2.8,3,2.8h18.3c1.6,0,2.9-1.2,3-2.8l2.9-40.2C58.4,14.7,56.1,12.5,53.4,12.5z"/>
	<path class="st10" d="M53.4,14.5 M53.4,14.5c1.6,0,3,1.3,3,2.9l-2.9,40.1"/>
	<path class="st2" d="M43.4,12.5c-2.8,0-5,2.2-5,5l1,43h8l1-43C48.4,14.7,46.1,12.5,43.4,12.5z"/>
	<circle class="st5" cx="43.4" cy="35" r="7.5"/>
	<path class="st12" d="M23.1,26.5H5.6c-1.8,0-3.1,1.5-3,3.3l2.5,28c0.1,1.5,1.4,2.7,3,2.7h12.5c1.6,0,2.9-1.2,3-2.7l2.5-28
		C26.2,28,24.8,26.5,23.1,26.5z"/>
	<path class="st13" d="M7.1,57.6l-2.5-28"/>
	<path class="st14" d="M24.1,29.6l-2.5,28"/>
	<path class="st14" d="M24.1,29.6l-2.5,28"/>
	<path class="st8" d="M24.9,38c-3.8,0-5.7,2.2-7.1,3.9c-1.3,1.4-1.9,2.1-3.4,2.1s-2.1-0.7-3.4-2.1C9.6,40.2,7.6,38,3.9,38
		c-0.2,0-0.3,0-0.5,0L3.8,43c0,0,0,0,0,0c1.4,0,2.1,0.7,3.4,2.1c1.4,1.6,3.4,3.9,7.1,3.9s5.7-2.2,7.1-3.9c1.3-1.4,1.9-2.1,3.4-2.1
		c0,0,0,0,0,0l0.4-4.9C25.2,38,25,38,24.9,38z"/>
	<path class="st9" d="M33.2,57.6l-2.9-40.1c0-1.6,1.4-2.9,3-2.9"/>
	<rect x="34.4" y="32.5" class="st8" width="18" height="5"/>
	<path class="st9" d="M5.9,43.7l-0.5-5.6"/>
	<path class="st10" d="M23.3,38.1l-0.5,5.6"/>
	<path class="st11" d="M24.9,38c-3.8,0-5.7,2.2-7.1,3.9c-1.3,1.4-1.9,2.1-3.4,2.1s-2.1-0.7-3.4-2.1C9.6,40.2,7.6,38,3.9,38
		c-0.2,0-0.3,0-0.5,0L3.8,43c0,0,0,0,0,0c1.4,0,2.1,0.7,3.4,2.1c1.4,1.6,3.4,3.9,7.1,3.9s5.7-2.2,7.1-3.9c1.3-1.4,1.9-2.1,3.4-2.1
		c0,0,0,0,0,0l0.4-4.9C25.2,38,25,38,24.9,38z"/>
	<circle class="st11" cx="15.4" cy="5.5" r="1.5"/>
	<circle class="st11" cx="5.4" cy="19" r="1.5"/>
</g>
</svg>
